<svg width="817" height="145" viewBox="0 0 817 145" fill="none" xmlns="http://www.w3.org/2000/svg">
<path d="M145.219 101.974V132.299C145.219 138.919 139.88 144.258 133.26 144.258H42.2843C39.0809 144.258 36.0912 142.976 33.8488 140.734L3.52369 110.516L20.3947 93.6448L47.1961 120.446H121.3V106.992L98.0227 83.6076H42.2843C39.0809 83.6076 36.0912 82.3263 33.8488 80.0839L3.52369 49.8656C1.28134 47.6232 0 44.5267 0 41.3233V11.9592C0 5.33893 5.33893 0 11.9592 0H102.935C106.138 0 109.128 1.28134 111.37 3.52369L141.588 33.8488L124.611 50.7198L98.0227 23.9184H23.9184V36.4115L47.1961 59.6892H102.935C106.138 59.6892 109.128 60.9706 111.37 63.2129L141.695 93.538C143.937 95.7804 145.219 98.8769 145.219 101.974Z" fill="url(#paint0_linear_801_154)"/>
<path d="M312.968 42.2843V132.405C312.968 139.026 307.629 144.365 301.009 144.365H209.927C206.723 144.365 203.733 143.083 201.491 140.841L171.166 110.516C168.924 108.273 167.642 105.177 167.642 102.08V11.9592C167.642 5.33893 172.981 0 179.602 0H270.684C273.887 0 276.877 1.28134 279.119 3.52369L309.551 33.8488C311.687 36.0912 312.968 39.0809 312.968 42.2843ZM289.05 47.1961L265.665 23.8116H191.561V96.9549L214.838 120.233H289.05V47.1961Z" fill="url(#paint1_linear_801_154)"/>
<path d="M484.347 0V101.974C484.347 105.177 483.066 108.167 480.823 110.409L450.498 140.734C448.256 142.976 445.266 144.258 442.063 144.258H381.413C378.209 144.258 375.219 142.976 372.977 140.734L342.652 110.409C340.41 108.167 339.128 105.177 339.128 101.974V0H363.047V97.0617L386.324 120.339H437.044L460.322 97.0617V0H484.347Z" fill="url(#paint2_linear_801_154)"/>
<path d="M651.989 42.2843V71.6484C651.989 78.2687 646.65 83.6076 640.03 83.6076H530.689V99.0905L553.753 120.339H640.03V144.258H549.055C546.065 144.258 543.182 143.083 540.94 141.054L510.615 113.185C508.159 110.943 506.771 107.74 506.771 104.429V71.6484C506.771 65.0281 512.109 59.6892 518.73 59.6892H628.071V47.8368L600.095 23.9184H518.73V0H604.58C607.463 0 610.132 1.06779 612.375 2.88302L647.932 33.2081C650.388 35.4505 651.989 38.7606 651.989 42.2843Z" fill="url(#paint3_linear_801_154)"/>
<path d="M816.322 12.2796V132.405C816.322 139.026 810.983 144.365 804.363 144.365H772.116C768.806 144.365 765.603 142.977 763.36 140.627L738.481 114.04H694.915V144.365H670.997V71.7552C670.997 68.5519 672.278 65.5621 674.521 63.3197L735.171 3.84407C737.413 1.60172 740.403 0.320374 743.606 0.320374H804.256C810.877 0.320374 816.322 5.6593 816.322 12.2796ZM792.404 24.2388H748.625L695.022 76.667V90.1211H743.713C747.023 90.1211 750.227 91.5093 752.469 93.8584L777.348 120.446H792.404V24.2388Z" fill="url(#paint4_linear_801_154)"/>
<defs>
<linearGradient id="paint0_linear_801_154" x1="-19.0691" y1="-237.415" x2="227.696" y2="-200.319" gradientUnits="userSpaceOnUse">
<stop stop-color="#0A0816"/>
<stop offset="0.369792" stop-color="#DEDCFF"/>
<stop offset="0.369792" stop-color="#DEDCFF"/>
<stop offset="1" stop-color="#333357"/>
</linearGradient>
<linearGradient id="paint1_linear_801_154" x1="148.559" y1="-237.591" x2="395.506" y2="-200.467" gradientUnits="userSpaceOnUse">
<stop stop-color="#0A0816"/>
<stop offset="0.369792" stop-color="#DEDCFF"/>
<stop offset="0.369792" stop-color="#DEDCFF"/>
<stop offset="1" stop-color="#333357"/>
</linearGradient>
<linearGradient id="paint2_linear_801_154" x1="320.059" y1="-237.415" x2="566.824" y2="-200.319" gradientUnits="userSpaceOnUse">
<stop stop-color="#0A0816"/>
<stop offset="0.369792" stop-color="#DEDCFF"/>
<stop offset="0.369792" stop-color="#DEDCFF"/>
<stop offset="1" stop-color="#333357"/>
</linearGradient>
<linearGradient id="paint3_linear_801_154" x1="487.701" y1="-237.415" x2="734.467" y2="-200.319" gradientUnits="userSpaceOnUse">
<stop stop-color="#0A0816"/>
<stop offset="0.369792" stop-color="#DEDCFF"/>
<stop offset="0.369792" stop-color="#DEDCFF"/>
<stop offset="1" stop-color="#333357"/>
</linearGradient>
<linearGradient id="paint4_linear_801_154" x1="651.914" y1="-236.743" x2="898.836" y2="-199.541" gradientUnits="userSpaceOnUse">
<stop stop-color="#0A0816"/>
<stop offset="0.369792" stop-color="#DEDCFF"/>
<stop offset="0.369792" stop-color="#DEDCFF"/>
<stop offset="1" stop-color="#333357"/>
</linearGradient>
</defs>
</svg>
